%TF.GenerationSoftware,KiCad,Pcbnew,(6.0.10)*%
%TF.CreationDate,2023-02-17T15:21:22-08:00*%
%TF.ProjectId,LED,4c45442e-6b69-4636-9164-5f7063625858,rev?*%
%TF.SameCoordinates,Original*%
%TF.FileFunction,Legend,Top*%
%TF.FilePolarity,Positive*%
%FSLAX46Y46*%
G04 Gerber Fmt 4.6, Leading zero omitted, Abs format (unit mm)*
G04 Created by KiCad (PCBNEW (6.0.10)) date 2023-02-17 15:21:22*
%MOMM*%
%LPD*%
G01*
G04 APERTURE LIST*
%ADD10C,0.150000*%
%ADD11C,0.120000*%
G04 APERTURE END LIST*
D10*
%TO.C,D1*%
X110792352Y-81138111D02*
X109792352Y-81138111D01*
X109792352Y-80900016D01*
X109839972Y-80757158D01*
X109935210Y-80661920D01*
X110030448Y-80614301D01*
X110220924Y-80566682D01*
X110363781Y-80566682D01*
X110554257Y-80614301D01*
X110649495Y-80661920D01*
X110744733Y-80757158D01*
X110792352Y-80900016D01*
X110792352Y-81138111D01*
X110792352Y-79614301D02*
X110792352Y-80185730D01*
X110792352Y-79900016D02*
X109792352Y-79900016D01*
X109935210Y-79995254D01*
X110030448Y-80090492D01*
X110078067Y-80185730D01*
%TO.C,R2*%
X139533333Y-93352380D02*
X139200000Y-92876190D01*
X138961904Y-93352380D02*
X138961904Y-92352380D01*
X139342857Y-92352380D01*
X139438095Y-92400000D01*
X139485714Y-92447619D01*
X139533333Y-92542857D01*
X139533333Y-92685714D01*
X139485714Y-92780952D01*
X139438095Y-92828571D01*
X139342857Y-92876190D01*
X138961904Y-92876190D01*
X139914285Y-92447619D02*
X139961904Y-92400000D01*
X140057142Y-92352380D01*
X140295238Y-92352380D01*
X140390476Y-92400000D01*
X140438095Y-92447619D01*
X140485714Y-92542857D01*
X140485714Y-92638095D01*
X140438095Y-92780952D01*
X139866666Y-93352380D01*
X140485714Y-93352380D01*
%TO.C,SW1*%
X148374761Y-74365833D02*
X148422380Y-74222976D01*
X148422380Y-73984880D01*
X148374761Y-73889642D01*
X148327142Y-73842023D01*
X148231904Y-73794404D01*
X148136666Y-73794404D01*
X148041428Y-73842023D01*
X147993809Y-73889642D01*
X147946190Y-73984880D01*
X147898571Y-74175357D01*
X147850952Y-74270595D01*
X147803333Y-74318214D01*
X147708095Y-74365833D01*
X147612857Y-74365833D01*
X147517619Y-74318214D01*
X147470000Y-74270595D01*
X147422380Y-74175357D01*
X147422380Y-73937261D01*
X147470000Y-73794404D01*
X147422380Y-73461071D02*
X148422380Y-73222976D01*
X147708095Y-73032500D01*
X148422380Y-72842023D01*
X147422380Y-72603928D01*
X148422380Y-71699166D02*
X148422380Y-72270595D01*
X148422380Y-71984880D02*
X147422380Y-71984880D01*
X147565238Y-72080119D01*
X147660476Y-72175357D01*
X147708095Y-72270595D01*
%TO.C,R1*%
X124163333Y-65412380D02*
X123830000Y-64936190D01*
X123591904Y-65412380D02*
X123591904Y-64412380D01*
X123972857Y-64412380D01*
X124068095Y-64460000D01*
X124115714Y-64507619D01*
X124163333Y-64602857D01*
X124163333Y-64745714D01*
X124115714Y-64840952D01*
X124068095Y-64888571D01*
X123972857Y-64936190D01*
X123591904Y-64936190D01*
X125115714Y-65412380D02*
X124544285Y-65412380D01*
X124830000Y-65412380D02*
X124830000Y-64412380D01*
X124734761Y-64555238D01*
X124639523Y-64650476D01*
X124544285Y-64698095D01*
%TO.C,C1*%
X133453333Y-85387142D02*
X133405714Y-85434761D01*
X133262857Y-85482380D01*
X133167619Y-85482380D01*
X133024761Y-85434761D01*
X132929523Y-85339523D01*
X132881904Y-85244285D01*
X132834285Y-85053809D01*
X132834285Y-84910952D01*
X132881904Y-84720476D01*
X132929523Y-84625238D01*
X133024761Y-84530000D01*
X133167619Y-84482380D01*
X133262857Y-84482380D01*
X133405714Y-84530000D01*
X133453333Y-84577619D01*
X134405714Y-85482380D02*
X133834285Y-85482380D01*
X134120000Y-85482380D02*
X134120000Y-84482380D01*
X134024761Y-84625238D01*
X133929523Y-84720476D01*
X133834285Y-84768095D01*
%TO.C,V1*%
X110852380Y-96329523D02*
X111852380Y-95996190D01*
X110852380Y-95662857D01*
X111852380Y-94805714D02*
X111852380Y-95377142D01*
X111852380Y-95091428D02*
X110852380Y-95091428D01*
X110995238Y-95186666D01*
X111090476Y-95281904D01*
X111138095Y-95377142D01*
D11*
%TO.C,D1*%
X112754972Y-82960016D02*
X115844972Y-82960016D01*
X115844802Y-82960016D02*
G75*
G03*
X114299510Y-77410016I-1544830J2560000D01*
G01*
X114300434Y-77410016D02*
G75*
G03*
X112755142Y-82960016I-462J-2990000D01*
G01*
X116799972Y-80400016D02*
G75*
G03*
X116799972Y-80400016I-2500000J0D01*
G01*
%TO.C,R2*%
X148420000Y-96520000D02*
X147570000Y-96520000D01*
X130980000Y-96520000D02*
X131830000Y-96520000D01*
X147570000Y-93900000D02*
X131830000Y-93900000D01*
X131830000Y-93900000D02*
X131830000Y-99140000D01*
X147570000Y-99140000D02*
X147570000Y-93900000D01*
X131830000Y-99140000D02*
X147570000Y-99140000D01*
%TO.C,SW1*%
X154770000Y-80032500D02*
X149570000Y-80032500D01*
X149170000Y-80332500D02*
X147870000Y-80332500D01*
X148820000Y-77982500D02*
X148820000Y-68082500D01*
X155520000Y-68082500D02*
X155520000Y-77982500D01*
X147870000Y-80332500D02*
X147870000Y-79032500D01*
X149570000Y-66032500D02*
X154770000Y-66032500D01*
%TO.C,R1*%
X116460000Y-65960000D02*
X116460000Y-71200000D01*
X133050000Y-68580000D02*
X132200000Y-68580000D01*
X116460000Y-71200000D02*
X132200000Y-71200000D01*
X132200000Y-71200000D02*
X132200000Y-65960000D01*
X132200000Y-65960000D02*
X116460000Y-65960000D01*
X115610000Y-68580000D02*
X116460000Y-68580000D01*
%TO.C,C1*%
X136240000Y-81280000D02*
G75*
G03*
X136240000Y-81280000I-2620000J0D01*
G01*
%TO.C,V1*%
X112490000Y-96820000D02*
X112290000Y-96820000D01*
X113100000Y-96020000D02*
X113100000Y-97970000D01*
X113100000Y-97970000D02*
X116600000Y-97970000D01*
X116600000Y-95520000D02*
X116100000Y-95520000D01*
X113800000Y-92460000D02*
X113800000Y-93070000D01*
X113800000Y-98580000D02*
X113800000Y-97970000D01*
X115100000Y-98580000D02*
X115100000Y-97970000D01*
X112190000Y-98880000D02*
X113440000Y-98880000D01*
X116600000Y-97970000D02*
X116600000Y-93070000D01*
X115100000Y-92460000D02*
X115100000Y-93070000D01*
X116100000Y-95620000D02*
X116100000Y-95420000D01*
X112190000Y-97630000D02*
X112190000Y-98880000D01*
X112290000Y-97120000D02*
X112490000Y-97120000D01*
X113100000Y-93070000D02*
X113100000Y-95020000D01*
X117210000Y-98580000D02*
X117210000Y-92460000D01*
X112390000Y-96820000D02*
X112390000Y-97120000D01*
X116600000Y-93070000D02*
X113100000Y-93070000D01*
X116100000Y-95420000D02*
X116600000Y-95420000D01*
X113100000Y-95020000D02*
X112490000Y-95020000D01*
X112290000Y-96820000D02*
X112290000Y-97120000D01*
X112490000Y-96020000D02*
X113100000Y-96020000D01*
X112490000Y-98580000D02*
X117210000Y-98580000D01*
X117210000Y-92460000D02*
X112490000Y-92460000D01*
X116600000Y-95620000D02*
X116100000Y-95620000D01*
X112490000Y-92460000D02*
X112490000Y-98580000D01*
%TD*%
M02*
