%TF.GenerationSoftware,KiCad,Pcbnew,(6.0.10)*%
%TF.CreationDate,2023-02-17T15:18:55-08:00*%
%TF.ProjectId,ee210,65653231-302e-46b6-9963-61645f706362,rev?*%
%TF.SameCoordinates,Original*%
%TF.FileFunction,Copper,L1,Top*%
%TF.FilePolarity,Positive*%
%FSLAX46Y46*%
G04 Gerber Fmt 4.6, Leading zero omitted, Abs format (unit mm)*
G04 Created by KiCad (PCBNEW (6.0.10)) date 2023-02-17 15:18:55*
%MOMM*%
%LPD*%
G01*
G04 APERTURE LIST*
G04 Aperture macros list*
%AMRoundRect*
0 Rectangle with rounded corners*
0 $1 Rounding radius*
0 $2 $3 $4 $5 $6 $7 $8 $9 X,Y pos of 4 corners*
0 Add a 4 corners polygon primitive as box body*
4,1,4,$2,$3,$4,$5,$6,$7,$8,$9,$2,$3,0*
0 Add four circle primitives for the rounded corners*
1,1,$1+$1,$2,$3*
1,1,$1+$1,$4,$5*
1,1,$1+$1,$6,$7*
1,1,$1+$1,$8,$9*
0 Add four rect primitives between the rounded corners*
20,1,$1+$1,$2,$3,$4,$5,0*
20,1,$1+$1,$4,$5,$6,$7,0*
20,1,$1+$1,$6,$7,$8,$9,0*
20,1,$1+$1,$8,$9,$2,$3,0*%
G04 Aperture macros list end*
%TA.AperFunction,SMDPad,CuDef*%
%ADD10RoundRect,0.150000X-0.825000X-0.150000X0.825000X-0.150000X0.825000X0.150000X-0.825000X0.150000X0*%
%TD*%
%TA.AperFunction,SMDPad,CuDef*%
%ADD11R,2.290000X3.000000*%
%TD*%
%TA.AperFunction,ComponentPad*%
%ADD12R,3.000000X3.000000*%
%TD*%
%TA.AperFunction,ComponentPad*%
%ADD13C,3.000000*%
%TD*%
%TA.AperFunction,SMDPad,CuDef*%
%ADD14RoundRect,0.250000X0.450000X-0.350000X0.450000X0.350000X-0.450000X0.350000X-0.450000X-0.350000X0*%
%TD*%
%TA.AperFunction,SMDPad,CuDef*%
%ADD15RoundRect,0.250000X-0.425000X0.537500X-0.425000X-0.537500X0.425000X-0.537500X0.425000X0.537500X0*%
%TD*%
%TA.AperFunction,SMDPad,CuDef*%
%ADD16RoundRect,0.250000X-0.450000X0.350000X-0.450000X-0.350000X0.450000X-0.350000X0.450000X0.350000X0*%
%TD*%
%TA.AperFunction,SMDPad,CuDef*%
%ADD17RoundRect,0.250000X0.337500X0.475000X-0.337500X0.475000X-0.337500X-0.475000X0.337500X-0.475000X0*%
%TD*%
%TA.AperFunction,SMDPad,CuDef*%
%ADD18RoundRect,0.250001X0.624999X-0.462499X0.624999X0.462499X-0.624999X0.462499X-0.624999X-0.462499X0*%
%TD*%
%TA.AperFunction,ViaPad*%
%ADD19C,0.800000*%
%TD*%
%TA.AperFunction,Conductor*%
%ADD20C,0.250000*%
%TD*%
%TA.AperFunction,Conductor*%
%ADD21C,0.500000*%
%TD*%
G04 APERTURE END LIST*
D10*
%TO.P,U1,1,GND*%
%TO.N,GND*%
X152465000Y-97155000D03*
%TO.P,U1,2,TR*%
%TO.N,/pin_2*%
X152465000Y-98425000D03*
%TO.P,U1,3,Q*%
%TO.N,/pin_3*%
X152465000Y-99695000D03*
%TO.P,U1,4,R*%
%TO.N,+9V*%
X152465000Y-100965000D03*
%TO.P,U1,5,CV*%
%TO.N,Net-(C2-Pad1)*%
X157415000Y-100965000D03*
%TO.P,U1,6,THR*%
%TO.N,/pin_2*%
X157415000Y-99695000D03*
%TO.P,U1,7,DIS*%
%TO.N,/pin_7*%
X157415000Y-98425000D03*
%TO.P,U1,8,VCC*%
%TO.N,+9V*%
X157415000Y-97155000D03*
D11*
%TO.P,U1,9*%
%TO.N,N/C*%
X154940000Y-99060000D03*
%TD*%
D12*
%TO.P,J1,1,Pin_1*%
%TO.N,+9V*%
X157320000Y-86360000D03*
D13*
%TO.P,J1,2,Pin_2*%
%TO.N,GND*%
X152240000Y-86360000D03*
%TD*%
D14*
%TO.P,R1,1*%
%TO.N,+9V*%
X137505000Y-97542900D03*
%TO.P,R1,2*%
%TO.N,/pin_7*%
X137505000Y-95542900D03*
%TD*%
D15*
%TO.P,C1,1*%
%TO.N,/pin_2*%
X137117500Y-110322500D03*
%TO.P,C1,2*%
%TO.N,GND*%
X137117500Y-113197500D03*
%TD*%
D16*
%TO.P,R2,1*%
%TO.N,/pin_7*%
X137160000Y-100600000D03*
%TO.P,R2,2*%
%TO.N,/pin_2*%
X137160000Y-102600000D03*
%TD*%
D17*
%TO.P,C2,1*%
%TO.N,Net-(C2-Pad1)*%
X149096200Y-113745000D03*
%TO.P,C2,2*%
%TO.N,GND*%
X147021200Y-113745000D03*
%TD*%
D14*
%TO.P,R3,1*%
%TO.N,/pin_3*%
X169180000Y-101310000D03*
%TO.P,R3,2*%
%TO.N,Net-(D1-Pad1)*%
X169180000Y-99310000D03*
%TD*%
%TO.P,R4,1*%
%TO.N,/pin_3*%
X169180000Y-107680000D03*
%TO.P,R4,2*%
%TO.N,Net-(D2-Pad2)*%
X169180000Y-105680000D03*
%TD*%
D18*
%TO.P,D1,1,K*%
%TO.N,Net-(D1-Pad1)*%
X169380000Y-94327500D03*
%TO.P,D1,2,A*%
%TO.N,+9V*%
X169380000Y-91352500D03*
%TD*%
%TO.P,D2,1,K*%
%TO.N,GND*%
X169560000Y-117387500D03*
%TO.P,D2,2,A*%
%TO.N,Net-(D2-Pad2)*%
X169560000Y-114412500D03*
%TD*%
D19*
%TO.N,/pin_2*%
X159007900Y-99649700D03*
X150859400Y-99623100D03*
%TO.N,+9V*%
X154932700Y-101183700D03*
%TD*%
D20*
%TO.N,/pin_2*%
X137160000Y-102600000D02*
X147882500Y-102600000D01*
X147882500Y-102600000D02*
X150859400Y-99623100D01*
X152057500Y-98425000D02*
X152465000Y-98425000D01*
X150859400Y-99623100D02*
X152057500Y-98425000D01*
X137160000Y-110280000D02*
X137160000Y-102600000D01*
X137117500Y-110322500D02*
X137160000Y-110280000D01*
X158962600Y-99695000D02*
X157415000Y-99695000D01*
X159007900Y-99649700D02*
X158962600Y-99695000D01*
D21*
%TO.N,GND*%
X152240000Y-97155000D02*
X149824900Y-97155000D01*
D20*
X169560000Y-117387500D02*
X150428000Y-117387500D01*
X150428000Y-117387500D02*
X147021200Y-113980700D01*
X147021200Y-113980700D02*
X147021200Y-113745000D01*
D21*
X145379900Y-101600000D02*
X136527100Y-101600000D01*
D20*
X136094600Y-102032500D02*
X136094600Y-112174600D01*
X136094600Y-112174600D02*
X137117500Y-113197500D01*
D21*
X152240000Y-86360000D02*
X152240000Y-97155000D01*
D20*
X137117500Y-113197500D02*
X146473700Y-113197500D01*
X152240000Y-97155000D02*
X152465000Y-97155000D01*
D21*
X149824900Y-97155000D02*
X145379900Y-101600000D01*
D20*
X136527100Y-101600000D02*
X136094600Y-102032500D01*
X146473700Y-113197500D02*
X147021200Y-113745000D01*
%TO.N,Net-(C2-Pad1)*%
X149096200Y-109283800D02*
X157415000Y-100965000D01*
X149096200Y-113745000D02*
X149096200Y-109283800D01*
%TO.N,Net-(D1-Pad1)*%
X169180000Y-94527500D02*
X169180000Y-99310000D01*
X169380000Y-94327500D02*
X169180000Y-94527500D01*
%TO.N,+9V*%
X164137800Y-91352500D02*
X163677700Y-90892300D01*
X163677700Y-90892300D02*
X159145300Y-86360000D01*
X163677700Y-90892300D02*
X157415000Y-97155000D01*
X157320000Y-86360000D02*
X159145300Y-86360000D01*
X153669400Y-84534700D02*
X155494700Y-86360000D01*
X169380000Y-91352500D02*
X164137800Y-91352500D01*
X137505000Y-97542900D02*
X150513200Y-84534700D01*
X152683700Y-101183700D02*
X152465000Y-100965000D01*
X150513200Y-84534700D02*
X153669400Y-84534700D01*
X157320000Y-86360000D02*
X155494700Y-86360000D01*
X154932700Y-101183700D02*
X152683700Y-101183700D01*
%TO.N,Net-(D2-Pad2)*%
X169560000Y-114412500D02*
X170253600Y-113718900D01*
X170253600Y-113718900D02*
X170253600Y-106753600D01*
X170253600Y-106753600D02*
X169180000Y-105680000D01*
%TO.N,/pin_7*%
X170622500Y-92047600D02*
X169830100Y-92840000D01*
X136447400Y-99887400D02*
X136447400Y-96600500D01*
X136447400Y-96600500D02*
X137505000Y-95542900D01*
X148964600Y-84083300D02*
X164070300Y-84083300D01*
X164791800Y-92840000D02*
X159206800Y-98425000D01*
X137505000Y-95542900D02*
X148964600Y-84083300D01*
X159206800Y-98425000D02*
X157415000Y-98425000D01*
X164070300Y-84083300D02*
X170622500Y-90635500D01*
X169830100Y-92840000D02*
X164791800Y-92840000D01*
X137160000Y-100600000D02*
X136447400Y-99887400D01*
X170622500Y-90635500D02*
X170622500Y-92047600D01*
%TO.N,/pin_3*%
X169180000Y-101310000D02*
X168106400Y-102383600D01*
X152081800Y-99695000D02*
X152465000Y-99695000D01*
X148173200Y-114455200D02*
X148173200Y-103603600D01*
X148173200Y-103603600D02*
X152081800Y-99695000D01*
X148516600Y-114798600D02*
X148173200Y-114455200D01*
X168106400Y-106606400D02*
X169180000Y-107680000D01*
X168106400Y-106606400D02*
X159914200Y-114798600D01*
X159914200Y-114798600D02*
X148516600Y-114798600D01*
X168106400Y-102383600D02*
X168106400Y-106606400D01*
%TD*%
M02*
